<svg width="206" height="39" viewBox="0 0 206 39" fill="none" xmlns="http://www.w3.org/2000/svg">
<path fill-rule="evenodd" clip-rule="evenodd" d="M89.8156 22.9791L79.8948 0H68.8718V38.9989H78.9765V16.9361L88.5295 38.9989H99.9214V0H89.8156V22.9791V22.9791ZM36.1795 38.9989H63.7386V31.8586H47.5713V22.8869H61.1664V15.3801H47.5713V7.50679H63.7386V0H36.1795V38.9989ZM137.95 0H103.777V7.50679H115.169V38.9989H126.558V7.50679H137.95V0ZM155.38 0H145.091L132.413 39H142.979L144.541 32.957H155.933L155.937 32.9296L157.494 39H168.058L155.38 0V0ZM146.195 26.1833L150.235 10.711L154.205 26.1833H146.195V26.1833ZM193.78 18.7664L203.978 0H193.139L187.35 12.4502L181.655 0H169.531L180.738 19.0419L168.933 38.9989H181.104L187.535 25.4042L194.516 38.9989H206L193.78 18.7664ZM20.761 0H0V39H11.3918V29.6618H20.7621C31.8775 29.6618 32.1528 22.8869 32.1528 20.1403V10.5277C32.1528 1.64818 24.5278 0 20.761 0V0ZM20.761 17.6691C20.761 21.8795 17.7297 22.155 16.4436 22.155H11.3918V7.50679H17.1791C20.5771 7.50679 20.761 9.97797 20.761 11.4429V17.6691Z" fill="white"/>
</svg>
