<svg width="462" height="41" viewBox="0 0 462 41" fill="none" xmlns="http://www.w3.org/2000/svg">
<path fill-rule="evenodd" clip-rule="evenodd" d="M50.1645 25.1848C50.1645 32.9895 46.9092 33.7348 45.3033 33.7348C43.8167 33.7348 40.4312 32.916 40.4312 25.1848C40.4312 17.4535 43.8167 16.6347 45.3033 16.6347C46.9092 16.6347 50.1645 17.3774 50.1645 25.1848ZM45.3033 10.5411C39.5034 10.5411 31.0857 12.799 31.0857 25.1848C31.0857 37.5705 39.5061 39.8284 45.3033 39.8284C51.4558 39.8284 59.529 37.2468 59.529 25.1848C59.529 13.1254 51.4558 10.5411 45.3033 10.5411ZM81.3749 25.3643C81.3749 28.8654 80.5285 33.7757 76.5434 33.7757C72.4173 33.7757 71.221 29.7495 71.221 25.3643C71.221 22.1978 72.2301 16.9883 76.6275 16.9883C80.1161 16.9911 81.3749 21.1369 81.3749 25.3643ZM90.1886 2.36646H80.9137V12.1434C78.8708 11.5539 76.7539 11.2625 74.6282 11.2783C68.9097 11.2783 61.881 14.1184 61.881 25.3698C61.881 35.3208 67.0298 40.0461 74.2322 40.0461C77.6448 40.0461 80.3494 38.49 81.6787 37.3257L82.4139 39.1538H90.1913V2.36646H90.1886ZM133.153 2.45896V21.1886L140.434 11.2158H149.994L140.947 22.9269L150.718 39.1375H140.822L133.153 25.9982V39.1429H123.279V2.45896H133.153Z" fill="#C92232"/>
<path fill-rule="evenodd" clip-rule="evenodd" d="M10.2084 2.53053V17.2326L21.207 2.36646H32.8846L20.0719 18.8379L33.1236 39.4061H21.3863L10.2084 21.2117V39.4061H0V2.53053H10.2084V2.53053ZM110.359 29.3477C110.359 32.6266 107.996 34.3003 105.53 34.3003C103.512 34.3003 101.386 33.1627 101.386 30.551C101.386 26.8481 106.347 26.0386 110.361 25.8143C110.359 25.8116 110.359 27.4361 110.359 29.3477V29.3477ZM110.068 20.9136C105.579 21.4114 92.2122 22.3658 92.2122 31.5109C92.2122 36.7725 95.9762 40.0461 101.416 40.0461C107.029 40.0461 109.291 37.7707 110.598 36.7835H110.709L110.877 39.3897H119.633V20.9136C119.633 15.5097 116.124 11.3338 109.566 11.3338H94.8165V19.9319H101.891C102.144 18.6274 103.086 16.7322 105.946 16.7294C108.439 16.7267 110.057 17.9136 110.068 20.9136Z" fill="#C92232"/>
<path fill-rule="evenodd" clip-rule="evenodd" d="M161.08 39.3596V2.62107H176.453C184.952 2.62107 190.603 6.67799 190.603 14.5248C190.603 22.3663 184.952 26.4286 176.453 26.4286H170.962V39.3596H161.08ZM175.653 19.2466C178.975 19.2466 180.86 17.2467 180.86 14.5248C180.86 11.803 179.103 9.80585 175.653 9.80585H170.962V19.2466H175.653ZM451.685 0.956336H461.575V39.3596H451.685V0.956336ZM399.227 14.0562H399.327C399.932 13.3969 402.283 10.6804 407.362 10.6859C413.303 10.6913 417.319 14.5194 417.319 20.9331V39.3596H407.961V22.0066C407.961 19.3229 406.51 17.462 403.861 17.462C401.298 17.462 399.75 19.3528 399.75 22.0066V39.3596H390.413V11.4052H399.088L399.227 14.0562ZM231.488 25.3851C231.488 33.202 228.231 33.9431 226.629 33.9431C225.143 33.9431 221.756 33.1284 221.756 25.3851C221.756 17.6391 225.143 16.8217 226.629 16.8217C228.231 16.8217 231.488 17.5655 231.488 25.3851ZM226.629 10.7186C220.831 10.7186 212.417 12.98 212.417 25.3851C212.417 37.7902 220.834 40.0462 226.629 40.0462C232.776 40.0462 240.844 37.466 240.844 25.3851C240.844 13.3042 232.776 10.7186 226.629 10.7186ZM377.749 25.3688C377.749 33.1857 374.498 33.9322 372.898 33.9322C371.409 33.9322 368.025 33.1121 368.025 25.3688C368.025 17.6255 371.409 16.8054 372.898 16.8054C374.498 16.8054 377.749 17.5492 377.749 25.3688ZM372.898 10.7022C367.098 10.7022 358.683 12.9664 358.683 25.3688C358.683 37.7712 367.1 40.0353 372.898 40.0353C379.043 40.0353 387.113 37.4497 387.113 25.3688C387.113 13.2906 379.04 10.7022 372.898 10.7022ZM270.269 27.2515C270.264 31.4119 272.018 34.0412 275.215 34.0466C277.922 34.0466 279.4 32.9241 280.015 30.709H288.324C286.879 36.556 282.529 40.0435 275.137 40.0435C266.163 40.0435 260.927 35.101 260.927 25.3769C260.927 16.7345 265.163 10.7268 275.137 10.7268C285.582 10.7268 289.384 16.9143 289.384 27.2515H270.269V27.2515ZM279.983 22.1592C279.983 19.1185 278.225 16.7018 275.137 16.7018C272.341 16.7018 270.269 18.8815 270.269 22.1592H279.983V22.1592ZM201.963 15.7482H202.239C203.053 13.5767 205.382 10.0892 211.562 10.0892V18.6635H209.276C205.176 18.6635 202.559 21.211 202.559 25.7666V39.3569H193.182V11.4134H201.805L201.963 15.7482V15.7482ZM345.726 11.4215H355.361V39.3705H345.726V11.4215ZM345.504 0.961783H355.413V8.12203H345.504V0.961783ZM307.206 19.9795C306.91 18.2303 305.761 16.4593 303.328 16.4593C301.717 16.4593 300.755 17.3748 300.755 18.6009C300.755 23.4425 316.003 20.8432 316.003 31.0414C316.003 37.338 310.056 40.0462 303.439 40.0462C297.533 40.0462 292.11 37.5287 291.087 30.7117H299.556C300.055 32.9159 301.378 34.2728 303.995 34.2728C305.4 34.2728 306.791 33.5289 306.791 31.8206C306.791 27.058 291.711 29.2568 291.711 19.3637C291.711 13.6285 296.579 10.7322 303.437 10.7295C310.183 10.7268 314.883 13.5576 315.677 19.9795H307.206V19.9795ZM334.096 19.9795C333.795 18.2303 332.65 16.4593 330.218 16.4593C328.602 16.4593 327.639 17.3748 327.639 18.6009C327.639 23.4425 342.893 20.8432 342.893 31.0414C342.893 37.338 336.946 40.0462 330.324 40.0462C324.423 40.0462 318.994 37.5287 317.977 30.7117H326.44C326.939 32.9159 328.263 34.2728 330.885 34.2728C332.284 34.2728 333.675 33.5289 333.675 31.8206C333.675 27.058 318.595 29.2568 318.595 19.3637C318.595 13.6285 323.468 10.7322 330.321 10.7295C337.068 10.7268 341.773 13.5576 342.562 19.9795H334.096V19.9795ZM245.88 39.3596V17.7807H241.728V11.4161H245.874V9.5252C245.874 4.07327 249.342 0.953613 255.777 0.953613H260.756V6.68072H258.712C256.567 6.68072 255.083 7.61799 255.083 10.0783V11.4161H260.035V17.7807H255.089V39.3596H245.88V39.3596ZM438.281 29.1996C438.281 32.4718 435.925 34.1284 433.462 34.1284C431.45 34.1284 429.406 33.0848 429.406 30.4828C429.406 26.791 434.279 26.0772 438.281 25.8483V29.1996V29.1996ZM438.42 20.8868C433.696 21.4099 420.164 22.1783 420.169 31.0223C420.169 36.259 424.348 40.0326 429.783 40.0326C434.989 40.0326 437.636 37.7603 438.528 36.7821H438.639L438.805 39.3787H447.555V22.5897C447.555 15.6174 443.854 10.7131 434.203 10.7131C423.838 10.7131 421.46 16.8026 421.189 19.9986H429.408C429.408 18.1023 431.114 16.5465 433.883 16.5465C436.364 16.5438 438.42 17.5655 438.42 20.8868V20.8868Z" fill="white"/>
</svg>
