<svg width="584" height="39" viewBox="0 0 584 39" fill="none" xmlns="http://www.w3.org/2000/svg">
<path d="M327.206 0.0314035H318.462L304.656 38.1805H327.206L328.586 34.9625H314.78L327.206 0.0314035ZM447.319 0.0314035H439.035L425.222 38.1805H447.779L449.16 34.9625H434.894L447.319 0.0314035ZM252.645 18.4202H246.21L244.829 22.098H251.272L245.282 38.1805H270.14L271.513 34.9625H254.954L260.008 22.098H270.6L271.981 18.4202H260.936L266.459 3.7015H283.018L283.946 0.0314035H259.095L252.645 18.4202ZM34.9756 18.4202H19.7888L26.2317 0.0314035H17.948L11.0372 18.4202H1.38061L0 22.098H10.1245L4.14184 38.1805H12.8857L18.4005 22.098H33.595L27.6123 38.1805H36.3562L50.1623 0.0314035H41.4108L34.9756 18.4202ZM95.7149 0.0314035L82.3767 22.098H73.1726L71.3318 25.316H80.068L72.2522 38.1805H76.394L84.6777 25.316H96.1828L95.7149 22.098H86.5185L93.8818 10.1452L98.4838 38.1805H106.768L100.785 0.0314035H95.7149ZM502.084 0.0314035L488.738 22.098H479.534L477.693 25.316H486.437L478.605 38.1805H482.747L491.039 25.316H502.544L502.084 22.098H492.879L500.243 10.1452L504.845 38.1805H513.121L507.146 0.0314035H502.084ZM381.51 0.0314035H372.766L365.863 18.4202H359.88L358.96 22.098H364.942L358.96 38.1882H373.686C385.982 38.2571 392.877 32.6562 393.015 26.2354C393.345 22.4428 390.292 19.2937 386.572 18.8799C392.593 17.5697 397.341 12.6814 397.157 8.76608C397.341 1.33394 387.7 0.176981 381.51 0.0314035V0.0314035ZM372.766 34.9625H369.084L373.817 21.5616L373.686 22.098H379.209C381.525 21.8758 385.69 21.3011 385.652 26.6952C385.399 32.503 377.636 34.9471 372.766 34.9625ZM378.288 18.4202H374.929L380.129 3.70916C383.243 3.34905 389.287 3.49463 389.333 9.2258C389.28 14.98 382.814 18.5734 378.288 18.4202ZM566.052 0.0314035H557.308L543.502 38.1805H553.166C576.675 38.2495 583.724 24.8869 584 14.7348C584.008 4.20719 575.379 0.176981 566.052 0.0314035V0.0314035ZM575.256 17.5008C573.945 31.3613 560.422 34.9471 553.166 34.9701L564.671 3.70916C575.095 3.19581 576.246 9.95369 575.256 17.5008ZM208.473 0.0314035C205.489 -0.106513 198.31 0.736308 195.587 8.76608C193.409 14.1908 196.784 18.2133 199.261 20.2591C201.961 22.2359 206.632 24.4655 208.005 26.2354C209.224 27.9134 209.508 31.6448 207.545 33.591C205.075 35.7746 198.655 37.3224 190.977 31.7521L189.597 35.4298C192.964 38.1882 200.81 41.1304 210.306 36.809C214.686 34.8092 221.082 23.094 213.067 17.5008C210.805 15.6236 204.76 12.3213 202.943 11.0647C201.455 10.0227 200.872 6.72033 203.863 4.6286C207.062 2.40662 214.041 3.41801 217.209 6.00776L218.59 2.78972C214.693 0.108023 211.817 -0.106513 208.473 0.0314035V0.0314035ZM154.169 0.0314035C150.986 -0.106513 143.799 0.736308 140.823 8.76608C138.905 14.1908 142.28 18.2133 144.965 20.2591C147.465 22.2359 152.136 24.4655 153.248 26.2354C154.721 27.9134 155.012 31.6448 152.788 33.591C150.579 35.7746 144.152 37.3224 136.681 31.7521L135.3 35.4298C138.476 38.1882 146.314 41.1304 155.549 36.809C160.19 34.8092 166.587 23.094 158.771 17.5008C156.301 15.6236 150.265 12.3213 148.646 11.0647C146.951 10.0227 146.384 6.72033 149.567 4.6286C152.566 2.40662 159.538 3.41801 162.452 6.00776L163.833 2.78972C160.19 0.108023 157.313 -0.106513 154.169 0.0314035V0.0314035Z" fill="white"/>
</svg>
